<svg width="20" height="20" viewBox="0 0 20 20" fill="none" xmlns="http://www.w3.org/2000/svg">
<path fill-rule="evenodd" clip-rule="evenodd" d="M16.667 13.3324H11.1795L9.51283 11.6657L11.1795 9.99906H16.667V13.3324ZM12.0978 3.5574L12.8187 4.99907H8.49449L12.0978 3.5574ZM17.5003 8.3324H16.667V6.66573C16.667 5.7474 15.9195 4.99906 15.0003 4.99906H14.682L13.2453 2.12656C13.052 1.73906 12.5945 1.56573 12.1903 1.7249L4.00616 4.99906H3.33366C2.41449 4.99906 1.66699 5.7474 1.66699 6.66573V16.6657C1.66699 17.5849 2.41449 18.3324 3.33366 18.3324H15.0003C15.9195 18.3324 16.667 17.5849 16.667 16.6657V14.9991H17.5003C17.9603 14.9991 18.3337 14.6257 18.3337 14.1657V9.16573C18.3337 8.70656 17.9603 8.3324 17.5003 8.3324Z" fill="#A9B7C7"/>
<path fill-rule="evenodd" clip-rule="evenodd" d="M12.5003 12.4987C12.9603 12.4987 13.3337 12.1262 13.3337 11.6654C13.3337 11.2062 12.9603 10.832 12.5003 10.832C12.0403 10.832 11.667 11.2062 11.667 11.6654C11.667 12.1262 12.0403 12.4987 12.5003 12.4987Z" fill="#A9B7C7"/>
</svg>
