<svg width="20" height="20" viewBox="0 0 20 20" fill="none" xmlns="http://www.w3.org/2000/svg">
<path fill-rule="evenodd" clip-rule="evenodd" d="M15 1.66602C14.6117 1.66602 14.275 1.93352 14.1875 2.31185L13.3758 5.83268H2.50002C2.24335 5.83268 2.00085 5.95185 1.84335 6.15352C1.68502 6.35602 1.62918 6.61935 1.69168 6.86852L3.35835 13.5352C3.45085 13.906 3.78418 14.166 4.16668 14.166H12.5C12.8884 14.166 13.225 13.8985 13.3125 13.521L15.6625 3.33268H18.3334V1.66602H15Z" fill="white"/><path fill-rule="evenodd" clip-rule="evenodd" d="M5.00004 15C4.08004 15 3.33337 15.7467 3.33337 16.6667C3.33337 17.5883 4.08004 18.3333 5.00004 18.3333C5.92004 18.3333 6.66671 17.5883 6.66671 16.6667C6.66671 15.7467 5.92004 15 5.00004 15Z" fill="white"/><path fill-rule="evenodd" clip-rule="evenodd" d="M11.6667 15C10.7467 15 10 15.7467 10 16.6667C10 17.5883 10.7467 18.3333 11.6667 18.3333C12.5867 18.3333 13.3333 17.5883 13.3333 16.6667C13.3333 15.7467 12.5867 15 11.6667 15Z" fill="white"/></svg>