<svg width="15px" height="15px" viewBox="0 0 15 15" version="1.1" style="vertical-align: middle;"><title></title><desc></desc><defs></defs><g id="Page-1" stroke="none" stroke-width="1" fill="none" fill-rule="evenodd"><g id="Search/research" transform="translate(-909.000000, -161.000000)" fill="#C2C7CA"><g id="icons/cross/gray" transform="translate(903.000000, 155.000000)"><path d="M12,12 L12,6 C12,5.17157288 12.6715729,4.5 13.5,4.5 C14.3284271,4.5 15,5.17157288 15,6 L15,12 L21,12 C21.8284271,12 22.5,12.6715729 22.5,13.5 C22.5,14.3284271 21.8284271,15 21,15 L15,15 L15,21 C15,21.8284271 14.3284271,22.5 13.5,22.5 C12.6715729,22.5 12,21.8284271 12,21 L12,15 L6,15 C5.17157288,15 4.5,14.3284271 4.5,13.5 C4.5,12.6715729 5.17157288,12 6,12 L12,12 Z" id="cross/white" transform="translate(13.500000, 13.500000) rotate(45.000000) translate(-13.500000, -13.500000) "></path></g></g></g></svg>