<svg width="21" height="21" viewBox="0 0 21 21" fill="none" xmlns="http://www.w3.org/2000/svg">
<path fill-rule="evenodd" clip-rule="evenodd" d="M1 10C1 5.032 5.032 1 10 1C14.968 1 19 5.032 19 10V11.287C19 13.06 17.623 14.5 15.85 14.5C14.779 14.5 13.771 13.978 13.186 13.177C12.376 13.996 11.242 14.5 10 14.5C7.516 14.5 5.5 12.484 5.5 10C5.5 7.516 7.516 5.5 10 5.5C12.484 5.5 14.5 7.516 14.5 10V11.287C14.5 11.998 15.139 12.7 15.85 12.7C16.561 12.7 17.2 11.998 17.2 11.287V10C17.2 6.094 13.906 2.8 10 2.8C6.094 2.8 2.8 6.094 2.8 10C2.8 13.906 6.094 17.2 10 17.2H14.5V19H10C5.032 19 1 14.968 1 10ZM7.3 10C7.3 11.494 8.506 12.7 10 12.7C11.494 12.7 12.7 11.494 12.7 10C12.7 8.506 11.494 7.3 10 7.3C8.506 7.3 7.3 8.506 7.3 10Z" fill="#A9B7C7"/>
</svg>
