<svg width="24" height="24" viewBox="0 0 24 24" fill="none" xmlns="http://www.w3.org/2000/svg">
<path fill-rule="evenodd" clip-rule="evenodd" d="M15 7.00586V2.00586L20 7.00586H15ZM14.707 18.7159L13.293 17.3019L15.586 15.0089L13.293 12.7159L14.707 11.3019L18.414 15.0089L14.707 18.7159ZM10.707 17.3019L9.293 18.7159L5.586 15.0089L9.293 11.3019L10.707 12.7159L8.414 15.0089L10.707 17.3019ZM16.414 1.00586H5C3.897 1.00586 3 1.90286 3 3.00586V21.0059C3 22.1089 3.897 23.0059 5 23.0059H19C20.103 23.0059 21 22.1089 21 21.0059V5.59186L16.414 1.00586Z" fill="#A9B7C7"/>
</svg>
