<svg width="20" height="20" viewBox="0 0 20 20" fill="none" xmlns="http://www.w3.org/2000/svg">
<path fill-rule="evenodd" clip-rule="evenodd" d="M10.0003 18.3327C5.40533 18.3327 1.66699 14.5952 1.66699 9.99935C1.66699 5.40435 5.40533 1.66602 10.0003 1.66602C14.5953 1.66602 18.3337 5.40435 18.3337 9.99935C18.3337 14.5952 14.5953 18.3327 10.0003 18.3327Z" fill="#A9B7C7"/>
<path fill-rule="evenodd" clip-rule="evenodd" d="M10.6949 11.3876C10.6949 11.7711 10.384 12.082 10.0004 12.082C9.6169 12.082 9.30599 11.7711 9.30599 11.3876V10.6931C9.30599 10.3096 9.6169 9.9987 10.0004 9.9987C10.7664 9.9987 11.3893 9.37578 11.3893 8.60981C11.3893 7.84314 10.7664 7.22092 10.0004 7.22092C9.23446 7.22092 8.61154 7.84314 8.61154 8.60981H7.22266C7.22266 7.07786 8.46849 5.83203 10.0004 5.83203C11.5324 5.83203 12.7782 7.07786 12.7782 8.60981C12.7782 9.90148 11.8914 10.9904 10.6949 11.3001V11.3876Z" fill="white"/>
<path fill-rule="evenodd" clip-rule="evenodd" d="M10.8679 13.8192C10.8679 14.2984 10.4791 14.6873 9.99989 14.6873C9.52072 14.6873 9.13184 14.2984 9.13184 13.8192C9.13184 13.3401 9.52072 12.9512 9.99989 12.9512C10.4791 12.9512 10.8679 13.3401 10.8679 13.8192Z" fill="white"/>
</svg>
