<svg width="16" height="16" viewBox="0 0 16 16" fill="none" xmlns="http://www.w3.org/2000/svg">
<g clip-path="url(#clip0_514_10015)">
<path d="M8.00065 1.3335C4.32065 1.3335 1.33398 4.32016 1.33398 8.00016C1.33398 11.6802 4.32065 14.6668 8.00065 14.6668C11.6807 14.6668 14.6673 11.6802 14.6673 8.00016C14.6673 4.32016 11.6807 1.3335 8.00065 1.3335ZM8.00065 11.3335C7.63398 11.3335 7.33398 11.0335 7.33398 10.6668V8.00016C7.33398 7.6335 7.63398 7.3335 8.00065 7.3335C8.36732 7.3335 8.66732 7.6335 8.66732 8.00016V10.6668C8.66732 11.0335 8.36732 11.3335 8.00065 11.3335ZM8.66732 6.00016H7.33398V4.66683H8.66732V6.00016Z" fill="#A9B7C7"/>
</g>
<defs>
<clipPath id="clip0_514_10015">
<rect width="16" height="16" fill="white"/>
</clipPath>
</defs>
</svg>
