<svg width="20" height="20" viewBox="0 0 20 20" fill="none" xmlns="http://www.w3.org/2000/svg">
<path fill-rule="evenodd" clip-rule="evenodd" d="M14.1667 16.6667V13.3333L16.6667 15L14.1667 16.6667ZM15 10C12.2425 10 10 12.2425 10 15C10 17.7575 12.2425 20 15 20C17.7575 20 20 17.7575 20 15C20 12.2425 17.7575 10 15 10Z" fill="#A9B7C7"/><path fill-rule="evenodd" clip-rule="evenodd" d="M5 16.6667H8.55167C8.41417 16.1333 8.33333 15.5767 8.33333 15C8.33333 11.3183 11.3175 8.33333 15 8.33333V0.833333C15 0.373333 14.6267 0 14.1667 0H5V16.6667Z" fill="#A9B7C7"/><path fill-rule="evenodd" clip-rule="evenodd" d="M3.33333 0H0.833333C0.373333 0 0 0.373333 0 0.833333V15.8333C0 16.2933 0.373333 16.6667 0.833333 16.6667H3.33333V0Z" fill="#A9B7C7"/></svg>