<svg width="20" height="20" viewBox="0 0 20 20" fill="none" xmlns="http://www.w3.org/2000/svg">
<path fill-rule="evenodd" clip-rule="evenodd" d="M18.7059 5.92081L10.3725 1.75414C10.1384 1.63664 9.86171 1.63664 9.62671 1.75414L1.29337 5.92081C1.12504 6.00497 0.997541 6.14914 0.922541 6.30664C0.871707 6.40747 0.833374 6.57997 0.833374 6.66664V11.47C0.833374 11.93 1.20587 12.3033 1.66671 12.3033C2.12671 12.3033 2.50004 11.93 2.50004 11.47V7.63914L10.0117 10.7683L18.6425 7.43997C18.9467 7.31831 19.1525 7.02914 19.1659 6.70081C19.1792 6.37247 18.9992 6.06747 18.7059 5.92081Z" fill="#A9B7C7"/><path fill-rule="evenodd" clip-rule="evenodd" d="M10.0001 12.3608C9.89091 12.3608 9.78175 12.3392 9.67925 12.2967L4.16675 10V12.5117C4.16675 12.8267 4.34508 13.115 4.62758 13.2567C6.05675 13.9717 7.52925 14.8558 10.0001 14.8558C12.4692 14.8558 13.9459 13.97 15.3726 13.2567C15.6551 13.115 15.8334 12.8267 15.8334 12.5117V10.1767L10.2992 12.3058C10.2026 12.3425 10.1017 12.3608 10.0001 12.3608Z" fill="#A9B7C7"/><path fill-rule="evenodd" clip-rule="evenodd" d="M1.66671 13.332C1.20671 13.332 0.833374 13.7054 0.833374 14.1654V15.832C0.833374 16.292 1.20671 16.6654 1.66671 16.6654C2.12671 16.6654 2.50004 16.292 2.50004 15.832V14.1654C2.50004 13.7054 2.12671 13.332 1.66671 13.332Z" fill="#A9B7C7"/></svg>