<svg width="22" height="22" viewBox="0 0 22 22" fill="none" xmlns="http://www.w3.org/2000/svg">
<path fill-rule="evenodd" clip-rule="evenodd" d="M2.805 11.5C2.805 9.961 4.1255 8.71 5.75 8.71H9.55V7H5.75C3.128 7 1 9.016 1 11.5C1 13.984 3.128 16 5.75 16H9.55V14.29H5.75C4.1255 14.29 2.805 13.039 2.805 11.5ZM6.7 12.4H14.3V10.6H6.7V12.4ZM11.45 7H15.25C17.872 7 20 9.016 20 11.5C20 13.984 17.872 16 15.25 16H11.45V14.29H15.25C16.8745 14.29 18.195 13.039 18.195 11.5C18.195 9.961 16.8745 8.71 15.25 8.71H11.45V7Z" fill="#A9B7C7"/>
</svg>
