<svg width="20" height="20" viewBox="0 0 20 20" fill="none" xmlns="http://www.w3.org/2000/svg">
<path fill-rule="evenodd" clip-rule="evenodd" d="M12.8846 1H6.11538C4.94769 1 4 1.91636 4 3.04545V16.9545C4 18.0836 4.94769 19 6.11538 19H12.8846C14.0523 19 15 18.0836 15 16.9545V3.04545C15 1.91636 14.0523 1 12.8846 1ZM9.5 18.1818C8.79769 18.1818 8.23077 17.6336 8.23077 16.9545C8.23077 16.2755 8.79769 15.7273 9.5 15.7273C10.2023 15.7273 10.7692 16.2755 10.7692 16.9545C10.7692 17.6336 10.2023 18.1818 9.5 18.1818ZM5.69231 14.9091H13.3077V3.45455H5.69231V14.9091Z" fill="#A9B7C7"/>
</svg>
