<svg width="20" height="20" viewBox="0 0 20 20" fill="none" xmlns="http://www.w3.org/2000/svg">
<path fill-rule="evenodd" clip-rule="evenodd" d="M14.375 7H13.5625V5.28571C13.5625 2.92 11.7425 1 9.5 1C7.2575 1 5.4375 2.92 5.4375 5.28571V7H4.625C3.73125 7 3 7.77143 3 8.71429V17.2857C3 18.2286 3.73125 19 4.625 19H14.375C15.2688 19 16 18.2286 16 17.2857V8.71429C16 7.77143 15.2688 7 14.375 7ZM9.5 14.7143C8.60625 14.7143 7.875 13.9429 7.875 13C7.875 12.0571 8.60625 11.2857 9.5 11.2857C10.3938 11.2857 11.125 12.0571 11.125 13C11.125 13.9429 10.3938 14.7143 9.5 14.7143ZM6.98125 5.28571V7H12.0188V5.28571C12.0188 3.82 10.8894 2.62857 9.5 2.62857C8.11063 2.62857 6.98125 3.82 6.98125 5.28571Z" fill="#A9B7C7"/>
</svg>
