<svg width="20" height="20" viewBox="0 0 20 20" fill="none" xmlns="http://www.w3.org/2000/svg">
<g clip-path="url(#clip0_514_10007)">
<path d="M16.666 1.6665H3.33268C2.41602 1.6665 1.66602 2.4165 1.66602 3.33317V18.3332L4.99935 14.9998H16.666C17.5827 14.9998 18.3327 14.2498 18.3327 13.3332V3.33317C18.3327 2.4165 17.5827 1.6665 16.666 1.6665ZM4.99935 11.6665V9.60817L10.7327 3.87484C10.8993 3.70817 11.1577 3.70817 11.3243 3.87484L12.7993 5.34984C12.966 5.5165 12.966 5.77484 12.7993 5.9415L7.05768 11.6665H4.99935ZM14.166 11.6665H8.74935L10.416 9.99984H14.166C14.6243 9.99984 14.9993 10.3748 14.9993 10.8332C14.9993 11.2915 14.6243 11.6665 14.166 11.6665Z" fill="#A9B7C7"/>
</g>
<defs>
<clipPath id="clip0_514_10007">
<rect width="20" height="20" fill="white"/>
</clipPath>
</defs>
</svg>
