<svg width="20" height="20" viewBox="0 0 20 20" fill="none" xmlns="http://www.w3.org/2000/svg">
<path fill-rule="evenodd" clip-rule="evenodd" d="M10 8C8.895 8 8 8.89583 8 10C8 11.105 8.895 12.0008 10 12.0008C11.105 12.0008 12 11.105 12 10C12 8.89583 11.105 8 10 8Z" fill="#A9B7C7"/>
<path fill-rule="evenodd" clip-rule="evenodd" d="M15 10.9092H13.5083C13.4267 11.2208 13.305 11.5133 13.1492 11.7867L14.0908 12.7283L12.7275 14.0908L11.7858 13.1492C11.5125 13.3058 11.2208 13.4267 10.9083 13.5075V15H9.09083V13.5075C8.77917 13.4267 8.4875 13.3058 8.21417 13.1492L7.2725 14.0908L5.90833 12.7283L6.85083 11.7867C6.695 11.5133 6.57333 11.2208 6.49167 10.9092H5V9.09083H6.49167C6.57333 8.77917 6.695 8.48833 6.85083 8.21417L5.90833 7.2725L7.2725 5.90917L8.21417 6.85083C8.4875 6.69417 8.77917 6.57333 9.09083 6.4925V5H10.9083V6.4925C11.2208 6.57333 11.5125 6.69417 11.7858 6.85083L12.7275 5.90917L14.0908 7.2725L13.1492 8.21417C13.305 8.48833 13.4267 8.77917 13.5083 9.09083H15V10.9092ZM15.8333 2.5H4.16667C3.24667 2.5 2.5 3.24667 2.5 4.16667V15.8333C2.5 16.7542 3.24667 17.5 4.16667 17.5H15.8333C16.7533 17.5 17.5 16.7542 17.5 15.8333V4.16667C17.5 3.24667 16.7533 2.5 15.8333 2.5Z" fill="#A9B7C7"/>
</svg>
