<svg width="16" height="16" viewBox="0 0 16 16" fill="none" xmlns="http://www.w3.org/2000/svg">
<path fill-rule="evenodd" clip-rule="evenodd" d="M8.88889 5.85621V2.86015L9.88997 3.80235C10.2293 4.12167 10.7941 4.1236 11.1413 3.79689C11.4908 3.4679 11.491 2.94291 11.1471 2.61921L8.6213 0.242036C8.4526 0.0832575 8.22813 0.00295083 7.9956 0C7.77072 0.000198291 7.54683 0.0810801 7.37582 0.242036L4.85007 2.61921C4.51078 2.93854 4.50873 3.47018 4.85586 3.79689C5.20542 4.12588 5.76321 4.12605 6.10715 3.80235L7.11111 2.85744V5.85621V7.52941V10.8771C7.11111 11.338 7.50908 11.7124 8 11.7124C8.49434 11.7124 8.88889 11.3384 8.88889 10.8771V7.52941V5.85621ZM1.77341 5.85621L4.44444 5.85621V7.52941L1.77778 7.52941V13.8039H14.2222V7.52941L11.5556 7.52941V5.85621L14.2266 5.85621C15.206 5.85621 16 6.60456 16 7.52444V13.8089C16 14.7302 15.2066 15.4771 14.2266 15.4771H1.77341C0.793984 15.4771 0 14.7288 0 13.8089V7.52444C0 6.6031 0.793442 5.85621 1.77341 5.85621Z" fill="#A9B7C7"/>
</svg>
